<?xml version="1.0" standalone="no"?>
<!DOCTYPE svg PUBLIC "-//W3C//DTD SVG 20010904//EN"
 "http://www.w3.org/TR/2001/REC-SVG-20010904/DTD/svg10.dtd">
<svg version="1.0" xmlns="http://www.w3.org/2000/svg"
 width="128.000000pt" height="128.000000pt" viewBox="0 0 128.000000 128.000000"
 preserveAspectRatio="xMidYMid meet">
<metadata>
Created by potrace 1.14, written by Peter Selinger 2001-2017
</metadata>
<g transform="translate(0.000000,128.000000) scale(0.100000,-0.100000)"
fill="#000000" stroke="none">
<path d="M551 1268 c-139 -21 -252 -80 -356 -183 -100 -100 -152 -198 -182
-345 -3 -14 -5 -61 -5 -105 0 -183 83 -357 224 -478 83 -71 177 -115 299 -143
44 -10 152 -11 198 -2 25 5 57 12 71 14 48 10 160 62 209 98 216 159 312 427
242 681 -31 114 -81 197 -170 285 -144 142 -338 207 -530 178z"/>
</g>
</svg>
