<?xml version="1.0" encoding="utf-8"?>
<!-- Generator: Adobe Illustrator 24.1.1, SVG Export Plug-In . SVG Version: 6.00 Build 0) -->
<svg version="1.1" id="Layer_1" xmlns="http://www.w3.org/2000/svg" xmlns:xlink="http://www.w3.org/1999/xlink" x="0px" y="0px" viewBox="0 0 512 512" style="enable-background:new 0 0 512 512;" xml:space="preserve">
	<path class="outline" fill="#000000" d="M384.5,144.5l56-56l-17-17l-56,56l-52.2-52.2c-6.2-6.2-16.4-6.2-22.6,0l-28.4,28.4c-17.9-5-36.8-7.7-56.3-7.7
	C93.1,96,0,189.1,0,304s93.1,208,208,208s208-93.1,208-208c0-19.5-2.7-38.4-7.7-56.3l28.4-28.4c6.2-6.2,6.2-16.4,0-22.6L384.5,144.5
	L384.5,144.5z" />
	<path class="st0" d="M354.5,233.6c7.9,28.2,13.5,43.9,13.5,70.4c0,88.4-71.6,160-160,160S48,392.4,48,304s71.6-160,160-160
	c26.3,0,41.4,5.4,70.4,13.5l25.6-25.6l76.1,76.1L354.5,233.6z" />
	<path class="outline" fill="#000000" d="M512,72c0,6.6-5.4,12-12,12h-24c-6.6,0-12-5.4-12-12s5.4-12,12-12h24C506.6,60,512,65.4,512,72z" />
	<path class="outline" fill="#000000" d="M452,12v24c0,6.6-5.4,12-12,12s-12-5.4-12-12V12c0-6.6,5.4-12,12-12S452,5.4,452,12z" />
	<path class="outline" fill="#000000" d="M457,55c-4.7-4.7-4.7-12.3,0-17l17-17c4.7-4.7,12.3-4.7,17,0s4.7,12.3,0,17l-17,17C469.3,59.7,461.7,59.7,457,55z" />
	<path class="outline" fill="#000000" d="M389.1,38.1c-4.7-4.7-4.7-12.3,0-17s12.3-4.7,17,0l17,17c4.7,4.7,4.7,12.3,0,17s-12.3,4.7-17,0L389.1,38.1z" />
	<path class="outline" fill="#000000" d="M490.9,105.9c4.7,4.7,4.7,12.3,0,17s-12.3,4.7-17,0l-17-17c-4.7-4.7-4.7-12.3,0-17s12.3-4.7,17,0L490.9,105.9z" />
	<path class="outline" fill="#000000" d="M216,208c0,13.3-10.7,24-24,24c-30.9,0-56,25.1-56,56c0,13.3-10.7,24-24,24s-24-10.7-24-24c0-57.3,46.7-104,104-104
	C205.3,184,216,194.7,216,208z" />
</svg>
