<?xml version="1.0" encoding="utf-8"?>
<!-- Generator: Adobe Illustrator 24.1.1, SVG Export Plug-In . SVG Version: 6.00 Build 0) -->
<svg version="1.1" id="Layer_1" xmlns="http://www.w3.org/2000/svg" xmlns:xlink="http://www.w3.org/1999/xlink" x="0px" y="0px" viewBox="0 0 512 512" style="enable-background:new 0 0 512 512;" xml:space="preserve">
	<path class="outline" fill="#000000" d="M476.5,22.9L382.3,1.2c-21.6-5-43.6,6.2-52.3,26.6l-43.5,101.5c-8,18.6-2.6,40.6,13.1,53.4l40,32.7
	C311,267.8,267.8,311,215.4,339.5l-32.7-40c-12.8-15.7-34.8-21.1-53.4-13.1L27.7,329.9c-20.4,8.7-31.5,30.7-26.6,52.3l21.7,94.2
	c4.8,20.9,23.2,35.5,44.6,35.5C312.3,512,512,313.7,512,67.5C512,46.1,497.4,27.7,476.5,22.9z" />
	<path class="st0" d="M69.3,464l-20.9-90.7l98.2-42.1l55.7,68.1c98.8-46.4,150.6-98,197-197l-68.1-55.7l42.1-98.2L464,69.3
	C463,286.9,286.9,463,69.3,464z" />
</svg>
