<?xml version="1.0" encoding="utf-8"?>
<!-- Generator: Adobe Illustrator 24.1.1, SVG Export Plug-In . SVG Version: 6.00 Build 0) -->
<svg version="1.1" id="Layer_1" xmlns="http://www.w3.org/2000/svg" xmlns:xlink="http://www.w3.org/1999/xlink" x="0px" y="0px" viewBox="0 0 593.8 593.8" style="enable-background:new 0 0 593.8 593.8;" xml:space="preserve">
	<path class="outline" fill="#000000" d="M579.7,262.3L330.2,14C311.4-4.7,281-4.6,262.3,14.1L14,263.6c-18.7,18.8-18.6,49.2,0.2,67.9l249.5,248.3
	c18.8,18.7,49.2,18.6,67.9-0.2l248.3-249.5C598.5,311.4,598.4,281,579.7,262.3z" />
	<path class="st0" d="M293.2,541.6l-241-239.8c-2.3-2.3-2.3-6.1,0-8.5l239.8-241c2.3-2.3,6.1-2.3,8.5,0l241,239.8
	c2.3,2.3,2.3,6.1,0,8.5l-239.8,241C299.4,543.9,295.6,543.9,293.2,541.6z" />
	<path class="outline" fill="#000000" d="M345.1,404c0,26.6-21.6,48.3-48.3,48.3c-26.6,0-48.2-21.6-48.2-48.3c0-26.6,21.6-48.3,48.2-48.3
	C323.5,355.8,345.1,377.4,345.1,404z M254.2,158.7l8.2,164.1c0.4,7.7,6.7,13.8,14.5,13.8h40c7.7,0,14.1-6,14.5-13.8l8.2-164.1
	c0.4-8.3-6.2-15.2-14.5-15.2h-56.4C260.4,143.5,253.8,150.4,254.2,158.7z" />
</svg>
