<?xml version="1.0" encoding="utf-8"?>
<!-- Generator: Adobe Illustrator 24.1.1, SVG Export Plug-In . SVG Version: 6.00 Build 0) -->
<svg version="1.1" id="Layer_1" xmlns="http://www.w3.org/2000/svg" xmlns:xlink="http://www.w3.org/1999/xlink" x="0px" y="0px" viewBox="0 0 448 512" style="enable-background:new 0 0 448 512;" xml:space="preserve">
	<style type="text/css">
		.st0{fill:#FFD40F;}
	</style>
	<path class="outline" fill="#000000" d="M442.2,376.2l-55.5-64.4h5.3c9.3,0,17.8-5.4,21.8-13.9c3.9-8.5,2.6-18.5-3.5-25.6l-54.6-64.5H368c9.5,0,18.1-5.6,21.9-14.2
	c3.8-8.7,2.2-18.8-4.1-25.8L241.9,7.6c-9.1-10.1-26.6-10.1-35.7,0l-144,160.1c-6.3,7.1-7.9,17.2-4.1,25.8
	c3.9,8.7,12.5,14.2,21.9,14.2h12.2l-54.6,64.5c-6,7.1-7.4,17.1-3.5,25.6s12.4,13.9,21.8,13.9h5.3L5.8,376.2
	c-6.1,7.1-7.5,17.2-3.6,25.7s12.4,14,21.8,14h168v24.5l-30.3,48.4c-5.3,10.6,2.4,23.2,14.3,23.2h96c11.9,0,19.6-12.5,14.3-23.2
	L256,440.4v-24.5h168c9.4,0,17.9-5.5,21.8-14S448.3,383.3,442.2,376.2L442.2,376.2z" />
	<polygon class="st0" points="76.4,367.9 166,263.8 107.7,263.8 195.7,159.7 133.8,159.7 224,59.5 314.1,159.7 252.2,159.7 
	340.2,263.8 282,263.8 371.7,367.9 " />
</svg>
