<?xml version="1.0" encoding="utf-8"?>
<!-- Generator: Adobe Illustrator 24.1.1, SVG Export Plug-In . SVG Version: 6.00 Build 0) -->
<svg version="1.1" id="Layer_1" xmlns="http://www.w3.org/2000/svg" xmlns:xlink="http://www.w3.org/1999/xlink" x="0px" y="0px" viewBox="0 0 427.8 478.5" style="enable-background:new 0 0 427.8 478.5;" xml:space="preserve">
	<style type="text/css">
		.st0{fill:#0900AA;}
		.st1{fill:#FFFFFF;stroke:#000000;stroke-miterlimit:10;}
	</style>
	<path class="st0" d="M188.4,2.3c-29.2,7-57.1,29.1-70.3,55.7c-19,38.6-16.1,65,15.2,134.9c15.7,35.2,55.2,108.6,62.9,116.8
	c9.1,9.6,25.8,9.6,34.9,0c7.7-8.2,47.2-81.5,62.9-116.8c25.5-56.9,30.8-80.2,24.8-108.6c-6.7-31.8-28-59.2-57.4-73.2
	c-8.9-4.3-20.2-8.5-25.1-9.6C224.3-0.7,199.7-0.6,188.4,2.3z M234.4,61.5c9.4,4.1,18.5,13.2,24.1,23.8c3.1,6.2,3.9,10.4,3.9,21.4
	s-0.9,15.2-3.9,21.4c-9.4,18.1-25.3,27.9-44.8,27.9c-42.6,0-65.3-49.7-37.3-81.7C191.3,57.2,213.2,52.4,234.4,61.5z" />
	<path d="M312.3,238.3l-8,16.2l36.8,18.3l36.6,18.5l-18,15.4c-23.1,19.7-28,25.3-28,31.8c0,2.7,7,20.5,15.4,39.5
	c8.5,18.8,15.4,34.4,15,34.7c-0.3,0.2-32.3,6.8-71.3,14.9L220.2,442l-88.4-48.7c-48.6-26.7-88.7-49.2-89.6-49.7
	c-0.9-0.9,25.6-63.6,29.1-68.4c0.2-0.3,10.6-2.4,23.1-4.6c12.5-2.2,25.3-4.4,28.2-5l5.6-1l-8.5-17.1c-7.7-15-9.1-16.9-12.5-16.1
	c-2.1,0.5-15,2.7-28.7,5c-13.8,2.2-26.8,5.1-28.9,6.5c-4.6,2.7-7,7.4-30.6,60c-20,44.6-22.1,52-15.9,59
	c4.6,5.6,208.1,116.6,213.7,116.6c6.3,0,177.6-35.6,181.6-37.6c5.1-2.7,8.5-8.9,8.5-15.4c0-3.9-6-19.3-17.1-44.3l-17.3-38.3l7.4-6.2
	c32.8-27.9,47.5-41.7,47.9-45.1c0.5-7.9-0.7-12.5-4.3-16.4c-2.7-2.9-99.5-53.2-102.6-53.2C320.7,222,316.8,229.4,312.3,238.3z" />
	<path class="outline" fill="#000000" d="M213.8,239.5" />
</svg>
