<?xml version="1.0" encoding="utf-8"?>
<!-- Generator: Adobe Illustrator 24.1.1, SVG Export Plug-In . SVG Version: 6.00 Build 0) -->
<svg version="1.1" id="Layer_1" xmlns="http://www.w3.org/2000/svg" xmlns:xlink="http://www.w3.org/1999/xlink" x="0px" y="0px" viewBox="0 0 512 512" style="enable-background:new 0 0 512 512;" xml:space="preserve">
	<path class="outline" fill="#000000" d="M507.5,117.2c-3-12.2-12.4-21.8-24.5-25.2c-12.1-3.3-25.2,0.1-34,9l-58.7,58.6l-32.4-5.4l-5.4-32.4l58.7-58.6
	c8.8-8.9,12.3-21.9,8.9-34c-3.4-12.1-13.1-21.5-25.3-24.5C341.7-8.5,286.9,6.7,248.3,45.4c-37.6,37.6-52.6,91.4-40.7,143.3L24,372.1
	C8.5,387.5,0,408.1,0,430s8.5,42.5,24,58c15.5,15.5,36.1,24,58,24c21.9,0,42.5-8.5,58-24l183.3-183.3
	c51.8,11.9,105.6-3.1,143.5-40.9C504.9,225.7,520.5,169.5,507.5,117.2z" />
	<path class="st0" d="M432.9,229.9c-28.5,28.5-70.2,38.1-109,25.2l-14.1-4.7L106,454.1c-12.8,12.8-35.3,12.8-48.1,0
	c-6.4-6.4-10-15-10-24c0-9.1,3.5-17.6,10-24l203.8-203.8l-4.6-14c-12.8-38.9-3.2-80.6,25-108.9C302.6,59,329.4,48,357.3,48h1.1
	l-57.3,57.3l15.1,90.6l90.6,15.1l57.4-57.3C464.4,182,453.5,209.3,432.9,229.9L432.9,229.9z" />
</svg>
